<svg width="24" height="26" viewBox="0 0 24 26" fill="none" xmlns="http://www.w3.org/2000/svg">
<g clip-path="url(#clip0)">
<path d="M21.8571 10.5625H14.4643V3.25C14.4643 2.3527 13.7286 1.625 12.8214 1.625H11.1786C10.2714 1.625 9.53571 2.3527 9.53571 3.25V10.5625H2.14286C1.23569 10.5625 0.5 11.2902 0.5 12.1875V13.8125C0.5 14.7098 1.23569 15.4375 2.14286 15.4375H9.53571V22.75C9.53571 23.6473 10.2714 24.375 11.1786 24.375H12.8214C13.7286 24.375 14.4643 23.6473 14.4643 22.75V15.4375H21.8571C22.7643 15.4375 23.5 14.7098 23.5 13.8125V12.1875C23.5 11.2902 22.7643 10.5625 21.8571 10.5625Z" fill="#333333"/>
</g>
<defs>
<clipPath id="clip0">
<rect width="23" height="26" fill="white" transform="translate(0.5)"/>
</clipPath>
</defs>
</svg>
